<svg width="1440" height="163" viewBox="0 0 1440 163" fill="none" xmlns="http://www.w3.org/2000/svg">
<path d="M-4.97323e-05 12.0031V162.003H1440V12.0031C1350 -27.9978 1191 45.2814 1080 45.502C940 45.2814 889 12.5029 720 12.5029C551 12.5029 501.5 45.2825 360 45.2826C249 45.2826 89.9999 -27.9978 -4.97323e-05 12.0031Z" fill="#081C15"/>
</svg>

<svg width="1440" height="163" viewBox="0 0 1440 163" fill="none" xmlns="http://www.w3.org/2000/svg">
<path d="M-4.1059e-05 12.0031V162.003H2545V12.0031C2385.94 -27.9978 2104.93 45.2814 1908.75 45.502C1661.32 45.2814 1571.19 12.5029 1272.5 12.5029C973.817 12.5029 886.332 45.2825 636.25 45.2826C440.073 45.2826 159.062 -27.9978 -4.1059e-05 12.0031Z" fill="#081C15"/>
</svg>
